<?xml version="1.0" encoding="UTF-8" standalone="no"?>
<!DOCTYPE svg PUBLIC "-//W3C//DTD SVG 1.1//EN"
 "http://www.w3.org/Graphics/SVG/1.1/DTD/svg11.dtd">
<!-- Generated by graphviz version 12.2.1 (20241206.2353)
 -->
<!-- Title: JSON Web Token Pages: 1 -->
<svg width="255pt" height="323pt"
 viewBox="0.00 0.00 255.25 323.25" xmlns="http://www.w3.org/2000/svg" xmlns:xlink="http://www.w3.org/1999/xlink">

<svg id="main" version="1.1" xmlns="http://www.w3.org/2000/svg" xmlns:xlink="http://www.w3.org/1999/xlink" xml:space="preserve">

<style type="text/css"><![CDATA[
.node, .edge {opacity: 0.7;}
.node.selected, .edge.selected {opacity: 1;}
.edge:hover path { stroke: red; }
.edge:hover polygon { stroke: red; fill: red; }
]]></style>
<script type="application/ecmascript" xlink:href="svg.min.js"/>
<svg id="graph" class="graph">
<g id="graph0" class="graph" transform="scale(1 1) rotate(0) translate(4 319.25)">
<title>JSON Web Token</title>
<!-- Node9 -->
<g id="Node000009" class="node">
<title>Node9</title>
<g id="a_Node000009"><a xlink:href="group__jwt__alg__grp.html" target="_top" xlink:title=" ">
<polygon fill="white" stroke="#666666" points="247.25,-315.25 130.75,-315.25 130.75,-296 247.25,-296 247.25,-315.25"/>
<text text-anchor="middle" x="189" y="-301.75" font-family="Helvetica,sans-Serif" font-size="10.00">Algorithm Management</text>
</a>
</g>
</g>
<!-- Node3 -->
<g id="Node000003" class="node">
<title>Node3</title>
<g id="a_Node000003"><a xlink:href="group__jwt__config__grp.html" target="_top" xlink:title=" ">
<polygon fill="white" stroke="#666666" points="237.88,-278.25 140.12,-278.25 140.12,-259 237.88,-259 237.88,-278.25"/>
<text text-anchor="middle" x="189" y="-264.75" font-family="Helvetica,sans-Serif" font-size="10.00">Configuration Type</text>
</a>
</g>
</g>
<!-- Node2 -->
<g id="Node000002" class="node">
<title>Node2</title>
<g id="a_Node000002"><a xlink:href="group__jwt__core__grp.html" target="_top" xlink:title=" ">
<polygon fill="white" stroke="#666666" points="231.12,-241.25 146.88,-241.25 146.88,-222 231.12,-222 231.12,-241.25"/>
<text text-anchor="middle" x="189" y="-227.75" font-family="Helvetica,sans-Serif" font-size="10.00">Object Creation</text>
</a>
</g>
</g>
<!-- Node4 -->
<g id="Node000004" class="node">
<title>Node4</title>
<g id="a_Node000004"><a xlink:href="group__jwt__create__grp.html" target="_top" xlink:title=" ">
<polygon fill="white" stroke="#666666" points="227.75,-204.25 150.25,-204.25 150.25,-185 227.75,-185 227.75,-204.25"/>
<text text-anchor="middle" x="189" y="-190.75" font-family="Helvetica,sans-Serif" font-size="10.00">Create a JWT</text>
</a>
</g>
</g>
<!-- Node8 -->
<g id="Node000008" class="node">
<title>Node8</title>
<g id="a_Node000008"><a xlink:href="group__jwt__encode__grp.html" target="_top" xlink:title=" ">
<polygon fill="white" stroke="#666666" points="242.75,-167.25 135.25,-167.25 135.25,-148 242.75,-148 242.75,-167.25"/>
<text text-anchor="middle" x="189" y="-153.75" font-family="Helvetica,sans-Serif" font-size="10.00">Encoding and Output</text>
</a>
</g>
</g>
<!-- Node6 -->
<g id="Node000006" class="node">
<title>Node6</title>
<g id="a_Node000006"><a xlink:href="group__jwt__grant__grp.html" target="_top" xlink:title=" ">
<polygon fill="white" stroke="#666666" points="238.62,-130.25 139.38,-130.25 139.38,-111 238.62,-111 238.62,-130.25"/>
<text text-anchor="middle" x="189" y="-116.75" font-family="Helvetica,sans-Serif" font-size="10.00">Grant Management</text>
</a>
</g>
</g>
<!-- Node1 -->
<g id="Node000001" class="node">
<title>Node1</title>
<g id="a_Node000001"><a xlink:title=" ">
<polygon fill="#999999" stroke="#666666" points="94.75,-167.25 0,-167.25 0,-148 94.75,-148 94.75,-167.25"/>
<text text-anchor="middle" x="47.38" y="-153.75" font-family="Helvetica,sans-Serif" font-size="10.00">JSON Web Token</text>
</a>
</g>
</g>
<!-- Node1&#45;&gt;Node9 -->
<g id="edge8" class="edge">
<title>Node1&#45;&gt;Node9</title>
<path fill="none" stroke="black" d="M55.9,-177.78C67.58,-206.36 92.77,-258.43 130.75,-287.62 134.88,-290.8 139.58,-293.42 144.47,-295.58"/>
<polygon fill="black" stroke="black" points="59.3,-176.87 52.39,-168.83 52.78,-179.42 59.3,-176.87"/>
</g>
<!-- Node1&#45;&gt;Node3 -->
<g id="edge2" class="edge">
<title>Node1&#45;&gt;Node3</title>
<path fill="none" stroke="black" d="M60.85,-177.14C75.27,-198.18 100.87,-231.25 130.75,-250.62 135.56,-253.74 140.94,-256.35 146.43,-258.53"/>
<polygon fill="black" stroke="black" points="63.82,-175.29 55.38,-168.9 57.99,-179.16 63.82,-175.29"/>
</g>
<!-- Node1&#45;&gt;Node2 -->
<g id="edge1" class="edge">
<title>Node1&#45;&gt;Node2</title>
<path fill="none" stroke="black" d="M69.54,-174.57C85.58,-186.77 108.58,-202.89 130.75,-213.62 136.94,-216.62 143.74,-219.27 150.43,-221.55"/>
<polygon fill="black" stroke="black" points="71.76,-171.86 61.71,-168.5 67.46,-177.39 71.76,-171.86"/>
</g>
<!-- Node1&#45;&gt;Node4 -->
<g id="edge3" class="edge">
<title>Node1&#45;&gt;Node4</title>
<path fill="none" stroke="black" d="M97.51,-170.65C114.71,-175.2 133.74,-180.25 149.89,-184.53"/>
<polygon fill="black" stroke="black" points="98.55,-167.3 87.99,-168.12 96.76,-174.07 98.55,-167.3"/>
</g>
<!-- Node1&#45;&gt;Node8 -->
<g id="edge7" class="edge">
<title>Node1&#45;&gt;Node8</title>
<path fill="none" stroke="black" d="M106.26,-157.62C115.77,-157.62 125.58,-157.62 134.96,-157.62"/>
<polygon fill="black" stroke="black" points="106.38,-154.13 96.38,-157.63 106.38,-161.13 106.38,-154.13"/>
</g>
<!-- Node1&#45;&gt;Node6 -->
<g id="edge5" class="edge">
<title>Node1&#45;&gt;Node6</title>
<path fill="none" stroke="black" d="M97.51,-144.6C114.71,-140.05 133.74,-135 149.89,-130.72"/>
<polygon fill="black" stroke="black" points="96.76,-141.18 87.99,-147.13 98.55,-147.95 96.76,-141.18"/>
</g>
<!-- Node7 -->
<g id="Node000007" class="node">
<title>Node7</title>
<g id="a_Node000007"><a xlink:href="group__jwt__header__grp.html" target="_top" xlink:title=" ">
<polygon fill="white" stroke="#666666" points="242,-93.25 136,-93.25 136,-74 242,-74 242,-93.25"/>
<text text-anchor="middle" x="189" y="-79.75" font-family="Helvetica,sans-Serif" font-size="10.00">Header Hanagement</text>
</a>
</g>
</g>
<!-- Node1&#45;&gt;Node7 -->
<g id="edge6" class="edge">
<title>Node1&#45;&gt;Node7</title>
<path fill="none" stroke="black" d="M69.54,-140.68C85.58,-128.48 108.58,-112.36 130.75,-101.62 136.94,-98.63 143.74,-95.98 150.43,-93.7"/>
<polygon fill="black" stroke="black" points="67.46,-137.86 61.71,-146.75 71.76,-143.39 67.46,-137.86"/>
</g>
<!-- Node10 -->
<g id="Node000010" class="node">
<title>Node10</title>
<g id="a_Node000010"><a xlink:href="group__jwt__valid__grp.html" target="_top" xlink:title=" ">
<polygon fill="white" stroke="#666666" points="240.88,-56.25 137.12,-56.25 137.12,-37 240.88,-37 240.88,-56.25"/>
<text text-anchor="middle" x="189" y="-42.75" font-family="Helvetica,sans-Serif" font-size="10.00">Validation Functions</text>
</a>
</g>
</g>
<!-- Node1&#45;&gt;Node10 -->
<g id="edge9" class="edge">
<title>Node1&#45;&gt;Node10</title>
<path fill="none" stroke="black" d="M60.85,-138.11C75.27,-117.07 100.87,-84 130.75,-64.62 135.56,-61.51 140.94,-58.9 146.43,-56.72"/>
<polygon fill="black" stroke="black" points="57.99,-136.09 55.38,-146.35 63.82,-139.96 57.99,-136.09"/>
</g>
<!-- Node5 -->
<g id="Node000005" class="node">
<title>Node5</title>
<g id="a_Node000005"><a xlink:href="group__jwt__verify__grp.html" target="_top" xlink:title=" ">
<polygon fill="white" stroke="#666666" points="236,-19.25 142,-19.25 142,0 236,0 236,-19.25"/>
<text text-anchor="middle" x="189" y="-5.75" font-family="Helvetica,sans-Serif" font-size="10.00">Token Verification</text>
</a>
</g>
</g>
<!-- Node1&#45;&gt;Node5 -->
<g id="edge4" class="edge">
<title>Node1&#45;&gt;Node5</title>
<path fill="none" stroke="black" d="M55.9,-137.47C67.58,-108.89 92.77,-56.82 130.75,-27.62 134.88,-24.45 139.58,-21.83 144.47,-19.67"/>
<polygon fill="black" stroke="black" points="52.78,-135.83 52.39,-146.42 59.3,-138.38 52.78,-135.83"/>
</g>
</g>
</svg>
</svg>

<style type='text/css'>
<![CDATA[
[data-mouse-over-selected='false'] { opacity: 0.7; }
[data-mouse-over-selected='true']  { opacity: 1.0; }
]]>
</style>
<script type="application/ecmascript"><![CDATA[
document.addEventListener('DOMContentLoaded', (event) => {
  highlightEdges();
  highlightAdjacentNodes();
});
]]></script>
</svg>
