<?xml version="1.0" encoding="UTF-8" standalone="no"?>
<!DOCTYPE svg PUBLIC "-//W3C//DTD SVG 1.1//EN"
 "http://www.w3.org/Graphics/SVG/1.1/DTD/svg11.dtd">
<!-- Generated by graphviz version 12.2.1 (20241206.2353)
 -->
<!-- Title: JSON Web Token Pages: 1 -->
<svg width="255pt" height="286pt"
 viewBox="0.00 0.00 255.25 286.25" xmlns="http://www.w3.org/2000/svg" xmlns:xlink="http://www.w3.org/1999/xlink">

<svg id="main" version="1.1" xmlns="http://www.w3.org/2000/svg" xmlns:xlink="http://www.w3.org/1999/xlink" xml:space="preserve">

<style type="text/css"><![CDATA[
.node, .edge {opacity: 0.7;}
.node.selected, .edge.selected {opacity: 1;}
.edge:hover path { stroke: red; }
.edge:hover polygon { stroke: red; fill: red; }
]]></style>
<script type="application/ecmascript" xlink:href="svg.min.js"/>
<svg id="graph" class="graph">
<g id="graph0" class="graph" transform="scale(1 1) rotate(0) translate(4 282.25)">
<title>JSON Web Token</title>
<!-- Node8 -->
<g id="Node000008" class="node">
<title>Node8</title>
<g id="a_Node000008"><a xlink:href="group__jwt__alg__grp.html" target="_top" xlink:title=" ">
<polygon fill="white" stroke="#666666" points="247.25,-278.25 130.75,-278.25 130.75,-259 247.25,-259 247.25,-278.25"/>
<text text-anchor="middle" x="189" y="-264.75" font-family="Helvetica,sans-Serif" font-size="10.00">Algorithm Management</text>
</a>
</g>
</g>
<!-- Node3 -->
<g id="Node000003" class="node">
<title>Node3</title>
<g id="a_Node000003"><a xlink:href="group__jwt__config__grp.html" target="_top" xlink:title=" ">
<polygon fill="white" stroke="#666666" points="237.88,-241.25 140.12,-241.25 140.12,-222 237.88,-222 237.88,-241.25"/>
<text text-anchor="middle" x="189" y="-227.75" font-family="Helvetica,sans-Serif" font-size="10.00">Configuration Type</text>
</a>
</g>
</g>
<!-- Node2 -->
<g id="Node000002" class="node">
<title>Node2</title>
<g id="a_Node000002"><a xlink:href="group__jwt__core__grp.html" target="_top" xlink:title=" ">
<polygon fill="white" stroke="#666666" points="231.12,-204.25 146.88,-204.25 146.88,-185 231.12,-185 231.12,-204.25"/>
<text text-anchor="middle" x="189" y="-190.75" font-family="Helvetica,sans-Serif" font-size="10.00">Object Creation</text>
</a>
</g>
</g>
<!-- Node7 -->
<g id="Node000007" class="node">
<title>Node7</title>
<g id="a_Node000007"><a xlink:href="group__jwt__encode__grp.html" target="_top" xlink:title=" ">
<polygon fill="white" stroke="#666666" points="242.75,-167.25 135.25,-167.25 135.25,-148 242.75,-148 242.75,-167.25"/>
<text text-anchor="middle" x="189" y="-153.75" font-family="Helvetica,sans-Serif" font-size="10.00">Encoding and Output</text>
</a>
</g>
</g>
<!-- Node5 -->
<g id="Node000005" class="node">
<title>Node5</title>
<g id="a_Node000005"><a xlink:href="group__jwt__grant__grp.html" target="_top" xlink:title=" ">
<polygon fill="white" stroke="#666666" points="238.62,-130.25 139.38,-130.25 139.38,-111 238.62,-111 238.62,-130.25"/>
<text text-anchor="middle" x="189" y="-116.75" font-family="Helvetica,sans-Serif" font-size="10.00">Grant Management</text>
</a>
</g>
</g>
<!-- Node1 -->
<g id="Node000001" class="node">
<title>Node1</title>
<g id="a_Node000001"><a xlink:title=" ">
<polygon fill="#999999" stroke="#666666" points="94.75,-148.25 0,-148.25 0,-129 94.75,-129 94.75,-148.25"/>
<text text-anchor="middle" x="47.38" y="-134.75" font-family="Helvetica,sans-Serif" font-size="10.00">JSON Web Token</text>
</a>
</g>
</g>
<!-- Node1&#45;&gt;Node8 -->
<g id="edge7" class="edge">
<title>Node1&#45;&gt;Node8</title>
<path fill="none" stroke="black" d="M58.12,-158.84C71.23,-183.94 96.86,-226.4 130.75,-250.62 135.16,-253.78 140.14,-256.39 145.27,-258.55"/>
<polygon fill="black" stroke="black" points="61.3,-157.37 53.68,-150.01 55.05,-160.51 61.3,-157.37"/>
</g>
<!-- Node1&#45;&gt;Node3 -->
<g id="edge2" class="edge">
<title>Node1&#45;&gt;Node3</title>
<path fill="none" stroke="black" d="M64.26,-157.1C79.69,-174 104.57,-198.58 130.75,-213.62 136.17,-216.74 142.19,-219.38 148.24,-221.61"/>
<polygon fill="black" stroke="black" points="66.98,-154.89 57.72,-149.75 61.75,-159.55 66.98,-154.89"/>
</g>
<!-- Node1&#45;&gt;Node2 -->
<g id="edge1" class="edge">
<title>Node1&#45;&gt;Node2</title>
<path fill="none" stroke="black" d="M78.39,-153.59C93.84,-161.01 113.08,-169.8 130.75,-176.62 138.04,-179.44 145.97,-182.15 153.54,-184.58"/>
<polygon fill="black" stroke="black" points="80.26,-150.61 69.74,-149.39 77.2,-156.91 80.26,-150.61"/>
</g>
<!-- Node1&#45;&gt;Node7 -->
<g id="edge6" class="edge">
<title>Node1&#45;&gt;Node7</title>
<path fill="none" stroke="black" d="M106.26,-146.5C115.77,-147.8 125.58,-149.13 134.96,-150.41"/>
<polygon fill="black" stroke="black" points="106.75,-143.04 96.37,-145.16 105.8,-149.97 106.75,-143.04"/>
</g>
<!-- Node1&#45;&gt;Node5 -->
<g id="edge4" class="edge">
<title>Node1&#45;&gt;Node5</title>
<path fill="none" stroke="black" d="M106.16,-131.18C117.18,-129.75 128.62,-128.28 139.32,-126.9"/>
<polygon fill="black" stroke="black" points="105.84,-127.69 96.37,-132.44 106.73,-134.63 105.84,-127.69"/>
</g>
<!-- Node6 -->
<g id="Node000006" class="node">
<title>Node6</title>
<g id="a_Node000006"><a xlink:href="group__jwt__header__grp.html" target="_top" xlink:title=" ">
<polygon fill="white" stroke="#666666" points="242,-93.25 136,-93.25 136,-74 242,-74 242,-93.25"/>
<text text-anchor="middle" x="189" y="-79.75" font-family="Helvetica,sans-Serif" font-size="10.00">Header Hanagement</text>
</a>
</g>
</g>
<!-- Node1&#45;&gt;Node6 -->
<g id="edge5" class="edge">
<title>Node1&#45;&gt;Node6</title>
<path fill="none" stroke="black" d="M79.06,-123.81C94.41,-116.66 113.37,-108.24 130.75,-101.62 138.05,-98.85 145.99,-96.15 153.57,-93.73"/>
<polygon fill="black" stroke="black" points="78.01,-120.44 70.45,-127.86 80.99,-126.77 78.01,-120.44"/>
</g>
<!-- Node9 -->
<g id="Node000009" class="node">
<title>Node9</title>
<g id="a_Node000009"><a xlink:href="group__jwt__valid__grp.html" target="_top" xlink:title=" ">
<polygon fill="white" stroke="#666666" points="240.88,-56.25 137.12,-56.25 137.12,-37 240.88,-37 240.88,-56.25"/>
<text text-anchor="middle" x="189" y="-42.75" font-family="Helvetica,sans-Serif" font-size="10.00">Validation Functions</text>
</a>
</g>
</g>
<!-- Node1&#45;&gt;Node9 -->
<g id="edge8" class="edge">
<title>Node1&#45;&gt;Node9</title>
<path fill="none" stroke="black" d="M64.56,-120.13C80.05,-103.48 104.82,-79.41 130.75,-64.62 136.18,-61.53 142.21,-58.89 148.26,-56.68"/>
<polygon fill="black" stroke="black" points="62.1,-117.63 57.98,-127.39 67.29,-122.33 62.1,-117.63"/>
</g>
<!-- Node4 -->
<g id="Node000004" class="node">
<title>Node4</title>
<g id="a_Node000004"><a xlink:href="group__jwt__verify__grp.html" target="_top" xlink:title=" ">
<polygon fill="white" stroke="#666666" points="236,-19.25 142,-19.25 142,0 236,0 236,-19.25"/>
<text text-anchor="middle" x="189" y="-5.75" font-family="Helvetica,sans-Serif" font-size="10.00">Token Verification</text>
</a>
</g>
</g>
<!-- Node1&#45;&gt;Node4 -->
<g id="edge3" class="edge">
<title>Node1&#45;&gt;Node4</title>
<path fill="none" stroke="black" d="M58.17,-118.59C71.33,-93.72 97.01,-51.64 130.75,-27.62 135.16,-24.48 140.15,-21.88 145.29,-19.71"/>
<polygon fill="black" stroke="black" points="55.13,-116.84 53.71,-127.34 61.37,-120.02 55.13,-116.84"/>
</g>
</g>
</svg>
</svg>

<style type='text/css'>
<![CDATA[
[data-mouse-over-selected='false'] { opacity: 0.7; }
[data-mouse-over-selected='true']  { opacity: 1.0; }
]]>
</style>
<script type="application/ecmascript"><![CDATA[
document.addEventListener('DOMContentLoaded', (event) => {
  highlightEdges();
  highlightAdjacentNodes();
});
]]></script>
</svg>
